# xmcd
#
# Track frame offsets:
#	150
#	11362
#	26645
#	40942
#	59078
#	73161
#	89405
#	107427
#	124073
#	141012
#
# Disc length: 2122 seconds
#
# Revision: 0
# Processed by: cddbd v1.5.2PL0 Copyright (c) Steve Scherf et al.
# Submitted via: dBpowerAMP V4.0
#
DISCID=8708480a
DTITLE=Various Artist - Oprey Legends Gospel Favourites
DYEAR=2012
DGENRE=Country
TTITLE0=I Saw The Light - Jimmy Dickens
TTITLE1=There Will Be Peace In The Valley - Connie Smith
TTITLE2=Softly And Tenderly - Ray Price
TTITLE3=What A Friend We Have In Jesus - Jeannie Sealy
TTITLE4=Jesus Loves Me - Stu Phillips
TTITLE5=Amazing Grace - Jack Greene
TTITLE6=Turn Your Radio On - Bill Anderson
TTITLE7=Family Bible - Jim Ed Brown
TTITLE8=Mansion Over The Hilltop - The Whites
TTITLE9=Suppertime - Charlie Louvin
EXTD=Oprey Legends Gospel Favourites
EXTT0=
EXTT1=
EXTT2=
EXTT3=
EXTT4=
EXTT5=
EXTT6=
EXTT7=
EXTT8=
EXTT9=
PLAYORDER=
